Coordinates
version=1
nRows=43
nColumns=12
inDegrees=yes

Units are S.I. units (second, meters, Newtons, ...)
Angles are in degrees

endheader
time	SC_y	SC_z	SC_x	AC_y	AC_z	AC_x	GH_y	GH_z	GH_yy	EL_x	PS_y
       0.0               -31.2          28.52          46.67          48.25           5.72          12.06         -168.5          40.62         -86.91          31.63          55.76
   0.04277               -31.2          28.52          46.66          48.25          5.716          12.06         -168.4          40.62         -86.92          31.64          55.76
   0.08554              -31.21          28.52          46.66          48.24          5.712          12.06         -168.4          40.61         -86.92          31.65          55.77
    0.1283              -31.21          28.52          46.65          48.24          5.708          12.06         -168.3           40.6         -86.92          31.66          55.78
    0.1711              -31.21          28.52          46.64          48.24          5.704          12.06         -168.3          40.59         -86.93          31.67          55.78
    0.2139              -31.22          28.52          46.64          48.24            5.7          12.06         -168.2          40.58         -86.93          31.69          55.79
    0.2566              -31.22          28.53          46.63          48.23          5.695          12.06         -168.1          40.57         -86.94           31.7           55.8
    0.2994              -31.23          28.53          46.62          48.23           5.69          12.05         -168.1          40.56         -86.95          31.71          55.81
    0.3422              -31.23          28.53          46.61          48.23          5.684          12.05         -168.0          40.55         -86.95          31.73          55.82
     0.385              -31.24          28.53           46.6          48.22          5.678          12.05         -167.9          40.54         -86.96          31.74          55.83
    0.4277              -31.25          28.53          46.59          48.22          5.671          12.05         -167.8          40.52         -86.97          31.76          55.84
    0.4705              -31.25          28.53          46.58          48.22          5.665          12.05         -167.7          40.51         -86.97          31.78          55.85
    0.5133              -31.26          28.53          46.56          48.21          5.657          12.04         -167.6          40.49         -86.98           31.8          55.86
     0.556              -31.27          28.53          46.55          48.21          5.649          12.04         -167.5          40.48         -86.99          31.82          55.87
    0.5988              -31.28          28.53          46.54           48.2           5.64          12.04         -167.4          40.46          -87.0          31.84          55.89
    0.6416              -31.29          28.53          46.52           48.2          5.631          12.04         -167.3          40.44         -87.01          31.87           55.9
    0.6844               -31.3          28.53           46.5          48.19          5.621          12.03         -167.1          40.42         -87.02           31.9          55.92
    0.7271              -31.31          28.53          46.48          48.19          5.609          12.03         -167.0          40.39         -87.04          31.93          55.94
    0.7699              -31.32          28.53          46.46          48.18          5.597          12.03         -166.8          40.37         -87.05          31.96          55.96
    0.8127              -31.34          28.53          46.44          48.17          5.584          12.02         -166.6          40.34         -87.06           32.0          55.98
    0.8554              -31.35          28.53          46.42          48.16          5.569          12.02         -166.4          40.31         -87.08          32.04           56.0
    0.8982              -31.37          28.54          46.39          48.16          5.553          12.01         -166.2          40.27          -87.1          32.08          56.03
     0.941              -31.38          28.54          46.36          48.15          5.535          12.01         -166.0          40.24         -87.12          32.13          56.06
    0.9838               -31.4          28.54          46.33          48.13          5.515           12.0         -165.7          40.19         -87.14          32.18          56.09
     1.027              -31.43          28.54          46.29          48.12          5.493          11.99         -165.4          40.15         -87.17          32.24          56.12
     1.069              -31.45          28.54          46.25          48.11          5.468          11.99         -165.1           40.1         -87.19           32.3          56.16
     1.112              -31.48          28.54           46.2          48.09          5.441          11.98         -164.7          40.04         -87.22          32.38          56.21
     1.155              -31.51          28.55          46.15          48.08           5.41          11.97         -164.3          39.97         -87.26          32.46          56.26
     1.198              -31.55          28.55          46.09          48.06          5.375          11.96         -163.8           39.9          -87.3          32.55          56.31
      1.24              -31.59          28.55          46.02          48.03          5.335          11.94         -163.3          39.82         -87.34          32.66          56.38
     1.283              -31.63          28.56          45.95          48.01           5.29          11.93         -162.7          39.72         -87.39          32.78          56.45
     1.326              -31.68          28.56          45.86          47.98          5.238          11.91         -162.0          39.61         -87.45          32.92          56.53
     1.369              -31.74          28.56          45.76          47.95          5.178          11.89         -161.2          39.49         -87.52          33.08          56.63
     1.411              -31.81          28.57          45.64          47.91          5.108          11.87         -160.2          39.34          -87.6          33.27          56.74
     1.454               -31.9          28.57           45.5          47.86          5.026          11.85         -159.1          39.17         -87.69          33.49          56.87
     1.497              -31.99          28.58          45.34          47.81           4.93          11.82         -157.8          38.97          -87.8          33.75          57.02
      1.54              -32.11          28.59          45.14          47.75          4.815          11.78         -156.3          38.73         -87.93          34.05          57.21
     1.583              -32.25           28.6          44.91          47.67          4.678          11.74         -154.4          38.44         -88.08          34.42          57.43
     1.625              -32.42          28.61          44.63          47.58          4.512          11.68         -152.2          38.09         -88.27          34.86          57.69
     1.668              -32.62          28.63          44.29          47.46          4.309          11.62         -149.4          37.67          -88.5          35.41          58.02
     1.711              -32.87          28.65          43.87          47.32          4.059          11.54         -146.1          37.14         -88.78          36.08          58.42
     1.754              -33.19          28.67          43.34          47.15          3.747          11.44         -141.9          36.49         -89.13          36.91          58.92
     1.796              -33.58           28.7          42.68          46.93          3.354          11.32         -136.5          35.66         -89.57          37.96          59.55
